<svg width="400" height="200" viewBox="0 0 400 200" fill="none" xmlns="http://www.w3.org/2000/svg">
<g clip-path="url(#clip0_20_18)">
<g filter="url(#filter0_d_20_18)">
<path d="M355.919 142.493C357.222 154.716 339.602 170.959 316.387 174.224C293.171 177.488 273.152 166.538 271.849 154.315C270.546 142.092 288.31 129.537 311.525 126.273C334.741 123.008 354.617 130.27 355.919 142.493Z" fill="#C04900"/>
</g>
<g filter="url(#filter1_d_20_18)">
<path d="M338.643 141.339C339.551 149.858 328.831 158.375 314.7 160.362C300.569 162.349 288.378 157.054 287.47 148.535C286.562 140.016 297.281 131.499 311.412 129.512C325.543 127.525 337.735 132.82 338.643 141.339Z" fill="#E15600"/>
<path d="M311.465 130.009C318.456 129.026 324.944 129.849 329.777 131.948C334.62 134.052 337.72 137.392 338.148 141.409C338.576 145.425 336.27 149.526 332.011 152.909C327.762 156.286 321.638 158.882 314.647 159.865C307.656 160.848 301.169 160.025 296.336 157.926C291.493 155.823 288.393 152.482 287.965 148.465C287.537 144.449 289.843 140.348 294.102 136.965C298.351 133.589 304.474 130.992 311.465 130.009Z" stroke="#DE6262"/>
</g>
<path d="M262.295 161.582C262.099 159.861 261.902 158.139 261.705 156.417C256.933 157.332 252.259 158.187 247.68 158.984C206.006 166.076 163.542 170.748 122.257 165.539C82.6055 161.512 33.9554 138.272 35.9092 87.8863C35.9781 82.7653 36.5107 77.6389 37.4642 72.5896C37.1547 72.5299 36.8453 72.4702 36.5358 72.4104C35.5078 77.5124 34.9033 82.7052 34.7693 87.9121C32.075 139.331 81.8609 164.101 121.779 168.657C163.451 174.55 206.209 170.46 248.174 163.955C252.785 163.223 257.491 162.433 262.295 161.582Z" fill="white"/>
<path d="M266.947 142.948C266.649 141.649 266.351 140.351 266.054 139.052C253.573 142.039 242.352 144.468 229.906 146.782C187.807 154.287 142.92 159.517 100.905 148.775C80.3533 143.313 59.8371 131.92 50.0781 112.558C40.1514 93.3669 42.4742 69.7028 51.537 50.2885C57.2597 38.0247 65.647 26.6866 76.5878 18.8285L75.5326 17.0981C22.7389 45.1026 2.10023 137.706 65.4331 165.797C120.304 192.969 184.567 187.5 243.214 181.245C255.911 179.684 267.169 178.058 280.001 175.956C279.667 173.985 279.333 172.015 278.999 170.044C266.283 172.354 255.128 174.18 242.542 175.934C184.457 183.183 120.559 189.179 66.8737 163.137C5.42801 136.832 24.8938 46.499 76.4678 18.902L75.4126 17.1716C64.101 25.3345 55.5791 36.92 49.7232 49.4535C40.4769 69.2744 37.9778 93.5538 48.2102 113.516C58.2922 133.647 79.412 145.4 100.265 151.075C142.923 162.23 188.075 157.294 230.516 150.264C243.058 148.079 254.368 145.788 266.947 142.948Z" fill="white"/>
<path d="M154.703 74L158.688 37.4375H172.68L176.594 74H168.789L168.25 67.3438H163.188L162.719 74H154.703ZM165.391 44L163.867 60.7578H167.477L165.766 44H165.391ZM179.125 74V37.4375H187.609L191.875 57.2656V37.4375H199.375V74H191.312L186.719 54.1953V74H179.125ZM203.031 74V37.4375H214.398C217.367 37.4375 219.594 38.2656 221.078 39.9219C222.578 41.5625 223.328 43.9688 223.328 47.1406V61.7656C223.328 65.6719 222.648 68.6875 221.289 70.8125C219.93 72.9375 217.539 74 214.117 74H203.031ZM211.328 66.7109H212.758C214.273 66.7109 215.031 65.9766 215.031 64.5078V47.9141C215.031 46.5391 214.844 45.6562 214.469 45.2656C214.109 44.8594 213.367 44.6562 212.242 44.6562H211.328V66.7109ZM236.547 74.375C233.172 74.375 230.633 73.3594 228.93 71.3281C227.227 69.2812 226.375 66.4219 226.375 62.75V47.8438C226.375 44.2969 227.242 41.6172 228.977 39.8047C230.727 37.9766 233.25 37.0625 236.547 37.0625C239.859 37.0625 242.383 37.9766 244.117 39.8047C245.852 41.6172 246.719 44.2969 246.719 47.8438V62.75C246.719 66.4219 245.867 69.2812 244.164 71.3281C242.461 73.3594 239.922 74.375 236.547 74.375ZM236.617 67.0156C237.398 67.0156 237.906 66.6641 238.141 65.9609C238.375 65.2422 238.492 64.3828 238.492 63.3828V47.4688C238.492 46.7344 238.391 46.0469 238.188 45.4062C237.984 44.75 237.477 44.4219 236.664 44.4219C235.867 44.4219 235.32 44.7266 235.023 45.3359C234.742 45.9297 234.602 46.6641 234.602 47.5391V63.4297C234.602 64.5078 234.727 65.375 234.977 66.0312C235.227 66.6875 235.773 67.0156 236.617 67.0156ZM154.703 122L158.688 85.4375H172.68L176.594 122H168.789L168.25 115.344H163.188L162.719 122H154.703ZM165.391 92L163.867 108.758H167.477L165.766 92H165.391ZM179.125 122V85.4375H190.492C193.461 85.4375 195.688 86.2656 197.172 87.9219C198.672 89.5625 199.422 91.9688 199.422 95.1406V109.766C199.422 113.672 198.742 116.688 197.383 118.812C196.023 120.938 193.633 122 190.211 122H179.125ZM187.422 114.711H188.852C190.367 114.711 191.125 113.977 191.125 112.508V95.9141C191.125 94.5391 190.938 93.6562 190.562 93.2656C190.203 92.8594 189.461 92.6562 188.336 92.6562H187.422V114.711ZM202.797 122V85.4375H211.281L215.547 105.266V85.4375H223.047V122H214.984L210.391 102.195V122H202.797ZM226.703 122V85.4375H243.203V93.4062H235.094V99.4531H242.875V107.211H235.094V113.961H243.742V122H226.703ZM256.281 122.375C252.516 122.375 249.797 121.438 248.125 119.562C246.469 117.688 245.641 114.703 245.641 110.609V109.273H253.797V111.734C253.797 112.688 253.938 113.438 254.219 113.984C254.516 114.516 255.023 114.781 255.742 114.781C256.492 114.781 257.008 114.586 257.289 114.195C257.586 113.789 257.734 113.203 257.734 112.438C257.734 111.422 257.391 110.562 256.703 109.859C256.031 109.156 254.914 108.203 253.352 107L249.789 104.234C248.273 103.062 247.203 101.766 246.578 100.344C245.953 98.9219 245.641 97.1953 245.641 95.1641C245.641 91.9922 246.453 89.5156 248.078 87.7344C249.719 85.9531 252.086 85.0625 255.18 85.0625C258.961 85.0625 261.641 86.0469 263.219 88.0156C264.812 89.9844 265.609 92.875 265.609 96.6875H257.242V94.6719C257.242 93.3281 256.617 92.6562 255.367 92.6562C254.742 92.6562 254.281 92.8438 253.984 93.2188C253.688 93.5781 253.539 94.0469 253.539 94.625C253.539 95.2031 253.672 95.75 253.938 96.2656C254.219 96.7656 254.859 97.4219 255.859 98.2344L260.617 102.102C262.352 103.508 263.664 104.984 264.555 106.531C265.445 108.078 265.891 110.086 265.891 112.555C265.891 114.273 265.578 115.883 264.953 117.383C264.344 118.883 263.336 120.094 261.93 121.016C260.523 121.922 258.641 122.375 256.281 122.375ZM278.453 122.375C274.688 122.375 271.969 121.438 270.297 119.562C268.641 117.688 267.812 114.703 267.812 110.609V109.273H275.969V111.734C275.969 112.688 276.109 113.438 276.391 113.984C276.688 114.516 277.195 114.781 277.914 114.781C278.664 114.781 279.18 114.586 279.461 114.195C279.758 113.789 279.906 113.203 279.906 112.438C279.906 111.422 279.562 110.562 278.875 109.859C278.203 109.156 277.086 108.203 275.523 107L271.961 104.234C270.445 103.062 269.375 101.766 268.75 100.344C268.125 98.9219 267.812 97.1953 267.812 95.1641C267.812 91.9922 268.625 89.5156 270.25 87.7344C271.891 85.9531 274.258 85.0625 277.352 85.0625C281.133 85.0625 283.812 86.0469 285.391 88.0156C286.984 89.9844 287.781 92.875 287.781 96.6875H279.414V94.6719C279.414 93.3281 278.789 92.6562 277.539 92.6562C276.914 92.6562 276.453 92.8438 276.156 93.2188C275.859 93.5781 275.711 94.0469 275.711 94.625C275.711 95.2031 275.844 95.75 276.109 96.2656C276.391 96.7656 277.031 97.4219 278.031 98.2344L282.789 102.102C284.523 103.508 285.836 104.984 286.727 106.531C287.617 108.078 288.062 110.086 288.062 112.555C288.062 114.273 287.75 115.883 287.125 117.383C286.516 118.883 285.508 120.094 284.102 121.016C282.695 121.922 280.812 122.375 278.453 122.375Z" fill="white"/>
<path d="M82.8086 122V36.0625H108.98L116.207 88.4551L123.385 36.0625H149.801V122H134.078V60.0859L124.215 122H108.785L98.3359 60.0859V122H82.8086Z" fill="#E15600"/>
</g>
<defs>
<filter id="filter0_d_20_18" x="261.782" y="119.491" width="104.205" height="69.3161" filterUnits="userSpaceOnUse" color-interpolation-filters="sRGB">
<feFlood flood-opacity="0" result="BackgroundImageFix"/>
<feColorMatrix in="SourceAlpha" type="matrix" values="0 0 0 0 0 0 0 0 0 0 0 0 0 0 0 0 0 0 127 0" result="hardAlpha"/>
<feOffset dy="4"/>
<feGaussianBlur stdDeviation="5"/>
<feComposite in2="hardAlpha" operator="out"/>
<feColorMatrix type="matrix" values="0 0 0 0 0 0 0 0 0 0 0 0 0 0 0 0 0 0 0.25 0"/>
<feBlend mode="normal" in2="BackgroundImageFix" result="effect1_dropShadow_20_18"/>
<feBlend mode="normal" in="SourceGraphic" in2="effect1_dropShadow_20_18" result="shape"/>
</filter>
<filter id="filter1_d_20_18" x="277.416" y="123.094" width="71.2805" height="51.6855" filterUnits="userSpaceOnUse" color-interpolation-filters="sRGB">
<feFlood flood-opacity="0" result="BackgroundImageFix"/>
<feColorMatrix in="SourceAlpha" type="matrix" values="0 0 0 0 0 0 0 0 0 0 0 0 0 0 0 0 0 0 127 0" result="hardAlpha"/>
<feOffset dy="4"/>
<feGaussianBlur stdDeviation="5"/>
<feComposite in2="hardAlpha" operator="out"/>
<feColorMatrix type="matrix" values="0 0 0 0 0 0 0 0 0 0 0 0 0 0 0 0 0 0 0.25 0"/>
<feBlend mode="normal" in2="BackgroundImageFix" result="effect1_dropShadow_20_18"/>
<feBlend mode="normal" in="SourceGraphic" in2="effect1_dropShadow_20_18" result="shape"/>
</filter>
<clipPath id="clip0_20_18">
<rect width="400" height="200" fill="white"/>
</clipPath>
</defs>
</svg>
